<svg width="39" height="40" viewBox="0 0 39 40" fill="none" xmlns="http://www.w3.org/2000/svg">
<path fill-rule="evenodd" clip-rule="evenodd" d="M11.1433 10.1965C11.1433 5.12104 15.2721 0.992188 20.3476 0.992188C25.4231 0.992188 29.5519 5.12104 29.5519 10.1965C29.5519 15.272 25.4231 19.4009 20.3476 19.4009C15.2721 19.4009 11.1433 15.272 11.1433 10.1965ZM13.2816 10.1979C13.2816 14.0943 16.4512 17.2639 20.3476 17.2639V17.2625C24.244 17.2625 27.4135 14.0929 27.4135 10.1965C27.4135 6.3001 24.244 3.13057 20.3476 3.13057C16.4512 3.13057 13.2816 6.30151 13.2816 10.1979ZM11.7476 21.4687H28.2123L28.2137 21.4701C34.1612 21.4701 39 26.309 39 32.2564V37.5023C39 38.6927 38.0308 39.6619 36.8405 39.6619H3.11803C1.9291 39.6619 0.95993 38.6927 0.95993 37.5023V32.2564C0.95993 30.4308 1.4248 28.6248 2.30522 27.0358C2.59119 26.5203 3.242 26.3329 3.75898 26.6189C4.27597 26.9048 4.46192 27.5556 4.17595 28.0726C3.4702 29.3447 3.09831 30.7914 3.09831 32.2564V37.5023C3.09831 37.5136 3.10817 37.5235 3.11944 37.5235H8.15548V32.4522C8.15548 31.862 8.63443 31.383 9.22467 31.383C9.81491 31.383 10.2939 31.862 10.2939 32.4522V37.5235H29.907V32.4522C29.907 31.862 30.3859 31.383 30.9761 31.383C31.5664 31.383 32.0453 31.862 32.0453 32.4522V37.5235H36.8419C36.8532 37.5235 36.863 37.5136 36.863 37.5023V32.2564C36.863 27.4866 32.9821 23.6071 28.2137 23.6071H11.7476C9.76702 23.6071 7.90474 24.2579 6.36082 25.4891C5.90018 25.8582 5.22683 25.7821 4.85916 25.3201C4.49009 24.858 4.56616 24.1847 5.02821 23.817C6.92852 22.3027 9.31342 21.4687 11.7476 21.4687Z" fill="url(#paint0_linear_316_2855)"/>
<defs>
<linearGradient id="paint0_linear_316_2855" x1="0.95993" y1="20.327" x2="39" y2="20.327" gradientUnits="userSpaceOnUse">
<stop stop-color="#323946"/>
<stop offset="0.973958" stop-color="#7A7E85"/>
</linearGradient>
</defs>
</svg>
