<svg width="145" height="47" viewBox="0 0 145 47" fill="none" xmlns="http://www.w3.org/2000/svg">
<path d="M17.5966 11.9403C12.8174 11.7682 8.63688 13.4543 5.18965 16.9548C1.74555 20.3927 0 24.5844 0 29.4144C0 34.0723 1.6108 38.1264 4.78539 41.4704C7.98504 44.8395 11.9619 46.6069 16.5875 46.7227C16.8131 46.7321 17.0356 46.7352 17.2581 46.7352C21.7426 46.7352 25.6881 45.0647 28.9944 41.7614C32.4761 38.2859 34.2404 34.1129 34.2404 29.3581C34.2404 24.7409 32.6108 20.6836 29.4049 17.3083C26.2428 13.9236 22.2691 12.1155 17.5966 11.9372V11.9403ZM27.9539 29.0453C28.0041 32.2829 26.9198 35.017 24.6258 37.4069C22.4133 39.7656 19.7683 40.8417 16.5436 40.6853H16.531C13.5382 40.582 11.0688 39.4246 8.98787 37.141C6.91327 34.8668 5.92924 32.2391 5.98252 29.1016C6.03266 25.9702 7.11383 23.3957 9.28872 21.2279C11.4762 19.0444 13.9801 17.9808 16.9573 17.9808C17.0262 17.9808 17.0951 17.9808 17.1641 17.9808C20.1162 17.9808 22.5606 19.035 24.6352 21.2091C26.7693 23.4427 27.8536 26.0109 27.9571 29.0453H27.9539Z" fill="url(#paint0_linear_90_520)"/>
<path d="M64.316 28.4009C64.3692 31.6135 63.3319 34.3382 61.1445 36.7344C58.9978 39.0836 56.4375 40.3068 53.313 40.4632C50.0695 40.6227 47.3274 39.5028 44.93 37.0597C42.5451 34.5728 41.4389 31.7293 41.5454 28.3445C41.5987 25.2101 42.7049 22.5511 44.93 20.2238C47.0516 18.0027 49.6746 16.8797 52.7301 16.8797C55.9298 16.8797 58.5779 17.9965 60.8343 20.2988C61.7713 21.2342 62.5109 22.2321 63.0687 23.2988C63.7644 20.9683 64.8613 18.8129 66.2872 16.9141C65.9644 16.5419 65.629 16.1759 65.2749 15.8224C61.7305 12.225 57.409 10.4951 52.4105 10.6765C48.1578 10.8298 44.4756 12.2813 41.4326 15.0028V0H35.1586V28.4415V28.6449C35.0364 33.6062 36.829 37.9418 40.4862 41.5299C44.0055 44.9865 48.1359 46.7352 52.7709 46.7352C52.9965 46.7352 53.2253 46.7321 53.454 46.7227C58.277 46.5412 62.3918 44.6894 65.6855 41.2202C68.9321 37.8011 70.615 33.7188 70.6965 29.0797L64.3003 27.9692C64.3066 28.1131 64.316 28.2538 64.316 28.3977V28.4009Z" fill="url(#paint1_linear_90_520)"/>
<path d="M93.4419 20.7774C93.4419 19.0038 93.8399 17.3239 94.5482 15.8224C91.2859 12.5847 87.2745 10.8486 82.6114 10.6734C77.5847 10.4982 73.2318 12.2218 69.6968 15.813C66.1273 19.376 64.3191 23.7211 64.3191 28.7262C64.3191 33.5123 66.0082 37.7166 69.3364 41.2202C72.6332 44.6893 76.7291 46.5412 81.5145 46.7227C81.7339 46.7289 81.9501 46.7321 82.1664 46.7321C86.5161 46.7321 90.3488 45.2555 93.5924 42.3338V46.8853H99.8068V31.1537C96.0305 29.2236 93.4451 25.3008 93.4451 20.7743L93.4419 20.7774ZM90.0323 37.0597C87.6882 39.5059 84.9461 40.6227 81.6524 40.4632C78.5217 40.3005 75.9582 39.0805 73.8146 36.7343C71.6648 34.3788 70.6463 31.6542 70.6996 28.4008C70.7529 25.1569 71.8748 22.4886 74.1249 20.2394C76.3907 17.9777 79.0607 16.8766 82.2854 16.8766C85.3409 16.8766 87.964 18.0027 90.0856 20.2206C92.3106 22.5511 93.4169 25.207 93.4701 28.3414C93.5234 31.7355 92.3984 34.5853 90.0292 37.0566L90.0323 37.0597Z" fill="url(#paint2_linear_90_520)"/>
<path d="M108.763 25.6605L104.99 24.4061C101.292 23.1768 101.443 21.1278 101.493 20.4521V20.4021C101.54 18.4939 103.122 16.9642 105.078 16.9172C105.09 16.9172 105.106 16.9172 105.119 16.9172C105.119 16.9172 105.137 16.9172 105.147 16.9172C105.269 16.9172 105.388 16.9266 105.51 16.936C105.576 16.9423 105.642 16.9485 105.708 16.9579C105.783 16.9673 105.855 16.9798 105.93 16.9923C105.99 17.0017 106.053 17.0111 106.112 17.0236C106.72 17.1487 107.29 17.3865 107.754 17.7181C108.472 18.1998 109.045 18.8786 109.409 19.6732C110.409 17.7056 111.725 15.9225 113.289 14.3865C112.878 13.9111 112.408 13.4637 111.882 13.0477C109.785 11.3366 107.478 10.5326 105.034 10.6546C102.264 10.7766 99.835 11.8308 97.8011 13.7984C95.8111 15.7817 94.8678 18.2029 94.9963 20.987C95.1844 25.5417 97.5974 28.6792 101.982 30.0525L105.805 31.2475C108.619 32.1515 109.91 33.6593 109.863 35.9773C109.813 37.3881 109.421 38.4392 108.666 39.1931C108.021 39.8375 107.218 40.241 106.194 40.4319C106.194 40.4319 106.165 40.4381 106.15 40.4412C106.109 40.4475 106.065 40.4538 106.021 40.46C105.877 40.485 105.733 40.5069 105.582 40.5195C105.388 40.5382 105.188 40.5507 104.978 40.557C104.504 40.5758 104.037 40.4882 103.577 40.313C102.668 40.0377 101.863 39.5216 101.233 38.8459V46.169C102.226 46.5318 103.282 46.7477 104.388 46.8165C104.63 46.829 104.868 46.8384 105.106 46.8384C108.058 46.8384 110.713 45.7654 113.019 43.6351C115.523 41.2577 116.667 38.4173 116.413 35.2047C116.1 30.4967 113.527 27.2841 108.76 25.6574L108.763 25.6605Z" fill="url(#paint3_linear_90_520)"/>
<path d="M145 27.9754C145 23.6804 143.352 19.7639 140.089 16.3292C136.745 12.8725 132.718 10.9674 128.112 10.664C123.038 10.3668 118.532 12.1124 114.721 15.8537C110.988 19.5199 109.158 23.9901 109.28 29.1266C109.34 33.9409 111.211 38.1858 114.843 41.7551C118.372 45.1617 122.508 46.8853 127.143 46.8853C127.222 46.8853 127.303 46.8853 127.385 46.8853C131.123 46.8259 134.561 45.7091 137.604 43.5663C140.672 41.4048 142.872 38.4392 144.144 34.748L144.596 33.4341H137.946L137.676 34.0003C135.595 38.3673 132.277 40.5163 127.519 40.5695C124.483 40.6227 121.882 39.6717 119.55 37.6697C117.598 35.993 116.366 33.8564 115.877 31.3069H144.994V27.9754H145ZM138.444 25.329H115.999C116.689 22.9641 117.927 21.0871 119.757 19.6169C121.951 17.8557 124.511 16.9892 127.35 17.0393C130.287 17.0924 132.718 17.9683 134.787 19.7139C136.532 21.1904 137.761 23.0735 138.441 25.329H138.444Z" fill="url(#paint4_linear_90_520)"/>
<defs>
<linearGradient id="paint0_linear_90_520" x1="-0.319652" y1="33.3622" x2="145.584" y2="-0.510091" gradientUnits="userSpaceOnUse">
<stop stop-color="#21365E"/>
<stop offset="0.45" stop-color="#2E6EB6"/>
<stop offset="0.92" stop-color="#48ABDF"/>
</linearGradient>
<linearGradient id="paint1_linear_90_520" x1="-0.209964" y1="33.8377" x2="145.697" y2="-0.0377303" gradientUnits="userSpaceOnUse">
<stop stop-color="#21365E"/>
<stop offset="0.45" stop-color="#2E6EB6"/>
<stop offset="0.92" stop-color="#48ABDF"/>
</linearGradient>
<linearGradient id="paint2_linear_90_520" x1="3.26233" y1="48.7967" x2="149.169" y2="14.9244" gradientUnits="userSpaceOnUse">
<stop stop-color="#21365E"/>
<stop offset="0.45" stop-color="#2E6EB6"/>
<stop offset="0.92" stop-color="#48ABDF"/>
</linearGradient>
<linearGradient id="paint3_linear_90_520" x1="4.04581" y1="52.172" x2="149.953" y2="18.2997" gradientUnits="userSpaceOnUse">
<stop stop-color="#21365E"/>
<stop offset="0.45" stop-color="#2E6EB6"/>
<stop offset="0.92" stop-color="#48ABDF"/>
</linearGradient>
<linearGradient id="paint4_linear_90_520" x1="5.16145" y1="56.9738" x2="151.068" y2="23.1015" gradientUnits="userSpaceOnUse">
<stop stop-color="#21365E"/>
<stop offset="0.45" stop-color="#2E6EB6"/>
<stop offset="0.92" stop-color="#48ABDF"/>
</linearGradient>
</defs>
</svg>
