<svg width="145" height="49" viewBox="0 0 145 49" fill="white" xmlns="http://www.w3.org/2000/svg">
<path d="M48.7094 5.61275H48.2518L48.255 3.11333L46.0613 0.00390625H46.5972L47.9573 1.93713L48.4931 2.69102H48.5026C48.5026 2.69102 48.7031 2.38759 49.0165 1.9559L50.4111 0.00703444H50.925L48.7125 3.11333V5.61275H48.7094Z" fill="white"/>
<path d="M53.7328 1.04492C55.049 1.04492 56.0738 2.03343 56.0707 3.38794C56.0707 4.73306 55.0396 5.71844 53.7234 5.71531C52.4166 5.71531 51.3918 4.7268 51.3918 3.38168C51.3918 2.02717 52.4229 1.04492 53.7297 1.04805L53.7328 1.04492ZM53.7266 5.29613C54.7858 5.29613 55.6225 4.52347 55.6225 3.38481C55.6225 2.23989 54.7921 1.46097 53.7328 1.45784C52.6736 1.45784 51.8462 2.23051 51.8431 3.37855C51.8431 4.51409 52.6673 5.29301 53.7266 5.29613Z" fill="white"/>
<path d="M61.4673 3.77261C61.4673 5.07081 60.8311 5.7246 59.6183 5.7246C58.4149 5.7246 57.7913 5.06455 57.7913 3.76635V1.13867H58.2519V3.8164C58.2457 4.80178 58.6781 5.30542 59.634 5.30855C60.5804 5.30855 61.0223 4.80491 61.0254 3.82266V1.14493H61.4704V3.77261H61.4673Z" fill="white"/>
<path d="M65.0774 3.75422C64.8769 3.76986 64.6669 3.76986 64.5572 3.76986H63.9712V5.63426H63.5293L63.5356 1.14844H64.8988C65.9737 1.15157 66.6067 1.61141 66.6067 2.44977C66.6067 3.14735 66.1649 3.5634 65.5224 3.68227L66.7164 5.63739H66.2275L65.0837 3.75109L65.0774 3.75422ZM64.9019 3.39448C65.7199 3.39448 66.1555 3.10043 66.1555 2.47479C66.1555 1.82726 65.676 1.56136 64.9051 1.56136H63.9743V3.39448H64.9051H64.9019Z" fill="white"/>
<path d="M71.7932 3.71116V5.65064H71.3325L71.3419 0.0449219H71.7995V1.84676C71.7995 2.63819 71.7901 3.14496 71.7901 3.15122H71.8057L72.8023 2.11266L74.7986 0.0480501H75.3689L73.216 2.27845L75.6008 5.66316L75.0555 5.65377L72.8712 2.60691L71.7932 3.71116Z" fill="white"/>
<path d="M80.427 5.66201L77.6567 1.84561H77.641C77.641 1.84561 77.6567 2.33361 77.6567 2.87791V5.65575H77.2117L77.2179 1.16992H77.6755L80.4301 4.93939H80.4458C80.4458 4.93939 80.4301 4.46704 80.4301 3.95401V1.17618H80.8845L80.8783 5.66201H80.4301H80.427Z" fill="white"/>
<path d="M85.0087 1.0957C86.3249 1.0957 87.3497 2.08421 87.3466 3.43872C87.3466 4.78384 86.3155 5.76609 84.9993 5.76609C83.6925 5.76609 82.6677 4.77759 82.6677 3.43246C82.6677 2.07796 83.6988 1.0957 85.0056 1.09883L85.0087 1.0957ZM85.0024 5.34692C86.0617 5.34692 86.8984 4.57425 86.8984 3.43559C86.8984 2.29067 86.068 1.51175 85.0087 1.50862C83.9495 1.50862 83.1221 2.28129 83.119 3.42621C83.119 4.56487 83.9432 5.34066 85.0024 5.34379V5.34692Z" fill="white"/>
<path d="M91.9754 3.88048C91.6808 2.97643 91.5116 2.41335 91.5053 2.4071H91.4959C91.4959 2.4071 91.3204 2.98269 91.0196 3.88048L90.4304 5.68232H89.9885L88.478 1.19336H88.9512L89.6783 3.38309C90.0387 4.45606 90.2299 5.09109 90.2361 5.09734H90.2455C90.2455 5.09734 90.4398 4.45606 90.7281 3.59268L91.2922 1.83151H91.7341L92.2919 3.59581C92.5708 4.46232 92.7557 5.09421 92.762 5.1036H92.7714C92.7714 5.1036 92.972 4.46232 93.3355 3.38935L94.0782 1.20274H94.5201L92.997 5.68544H92.5552L91.9723 3.88048H91.9754Z" fill="white"/>
<path d="M96.1401 1.20117H96.5819L96.5757 5.27095H99.0232V5.69013H96.1338L96.1401 1.20117Z" fill="white"/>
<path d="M100.803 1.21211L103.843 1.21837V1.63442L101.242 1.63129V3.16098H103.285V3.57077L101.239 3.56764V5.28189L103.875 5.28502V5.70107L100.794 5.69481L100.8 1.20898L100.803 1.21211Z" fill="white"/>
<path d="M107.243 1.2211C108.694 1.2211 109.713 2.08135 109.71 3.48278C109.71 4.87483 108.688 5.70693 107.284 5.7038H105.767L105.774 1.21484H107.243V1.2211ZM107.278 5.29088C108.419 5.29088 109.262 4.66837 109.262 3.48278C109.262 2.30658 108.437 1.64028 107.234 1.63715H106.215L106.209 5.28775H107.275L107.278 5.29088Z" fill="white"/>
<path d="M115.354 5.71991C115.354 5.14432 115.363 5.00668 115.363 4.98478H115.354C115.138 5.24755 114.583 5.81688 113.571 5.81375C112.207 5.81375 111.205 4.82525 111.208 3.48012C111.208 2.12562 112.229 1.14336 113.555 1.14649C114.357 1.14649 115.263 1.50936 115.67 2.47285L115.254 2.58546C115.037 2.1131 114.492 1.55941 113.571 1.55628C112.48 1.55628 111.659 2.32269 111.659 3.48325C111.659 4.62191 112.468 5.39771 113.615 5.40083C114.489 5.40083 115.147 4.90658 115.357 4.54684V3.88366H113.937V3.48325H115.768V5.72616H115.354V5.71991Z" fill="white"/>
<path d="M117.761 1.23633L120.8 1.24258V1.65863L118.199 1.65551V3.18519L120.243 3.18832V3.59498H118.196V5.30923L120.832 5.31236V5.72841L117.751 5.72216L117.757 1.23633H117.761Z" fill="white"/>
<path d="M128.196 2.74408C128.717 2.80977 129.534 3.18515 129.534 4.19556C129.534 5.17155 128.832 5.74088 127.648 5.73775H125.539L125.548 0.128906H127.45C128.485 0.135163 129.127 0.704494 129.124 1.49593C129.124 2.26546 128.626 2.6252 128.199 2.71905V2.74408H128.196ZM127.629 5.33109C128.472 5.33109 129.049 4.96509 129.052 4.1893C129.052 3.40412 128.381 2.9693 127.617 2.9693H125.996L125.993 5.32796H127.629V5.33109ZM127.432 2.59392C128.137 2.59392 128.651 2.24356 128.654 1.55536C128.654 0.939108 128.174 0.544956 127.363 0.544956H125.999V2.59392H127.435H127.432Z" fill="white"/>
<path d="M131.866 4.43253L131.327 5.74637H130.863L132.772 1.26367H133.276L135.163 5.75263H134.699L134.157 4.43879H131.869L131.866 4.43253ZM133.521 2.9091C133.176 2.08326 133.032 1.67346 133.026 1.66721H133.01C133.01 1.66721 132.831 2.12392 132.477 2.96228L132.035 4.03525H133.985L133.521 2.9091Z" fill="white"/>
<path d="M136.877 4.53624C136.949 5.13685 137.454 5.4747 138.206 5.4747C138.889 5.4747 139.347 5.19629 139.347 4.59567C139.347 3.81988 138.594 3.73855 137.849 3.57588C137.313 3.46327 136.573 3.26932 136.576 2.38717C136.576 1.61138 137.147 1.17969 138.118 1.17969C139.002 1.17969 139.594 1.53317 139.76 2.26517L139.359 2.37779C139.231 1.87415 138.895 1.56133 138.149 1.5582C137.435 1.5582 137.034 1.84599 137.034 2.37466C137.034 2.99091 137.585 3.12855 138.284 3.26619C138.845 3.37255 139.801 3.54147 139.798 4.58942C139.798 5.43716 139.162 5.85321 138.206 5.85321C137.523 5.85321 136.633 5.64362 136.467 4.63947L136.877 4.53624Z" fill="white"/>
<path d="M141.568 1.27734L144.608 1.2836V1.69965L142.007 1.69652V3.22621L144.05 3.22934V3.63913L142.004 3.636V5.35025L144.64 5.35338V5.76943L141.559 5.76317L141.565 1.27734H141.568Z" fill="white"/>
<path d="M17.5966 11.9397C12.8174 11.7676 8.63688 13.4537 5.18965 16.9542C1.74555 20.3921 0 24.5838 0 29.4138C0 34.0716 1.6108 38.1258 4.78539 41.4698C7.98504 44.8389 11.9619 46.6063 16.5875 46.7221C16.8131 46.7314 17.0356 46.7346 17.2581 46.7346C21.7426 46.7346 25.6881 45.0641 28.9944 41.7607C32.4761 38.2853 34.2404 34.1123 34.2404 29.3575C34.2404 24.7402 32.6108 20.683 29.4049 17.3077C26.2428 13.923 22.2691 12.1149 17.5966 11.9366V11.9397ZM27.9539 29.0446C28.0041 32.2823 26.9198 35.0164 24.6258 37.4063C22.4133 39.765 19.7683 40.8411 16.5436 40.6846H16.531C13.5382 40.5814 11.0688 39.424 8.98787 37.1404C6.91327 34.8662 5.92924 32.2385 5.98252 29.1009C6.03266 25.9696 7.11383 23.3951 9.28872 21.2273C11.4762 19.0438 13.9801 17.9802 16.9573 17.9802C17.0262 17.9802 17.0951 17.9802 17.1641 17.9802C20.1162 17.9802 22.5606 19.0344 24.6352 21.2085C26.7693 23.4421 27.8536 26.0103 27.9571 29.0446H27.9539Z" fill="white(#paint0_linear_424_1356)"/>
<path d="M64.316 28.4009C64.3693 31.6135 63.332 34.3382 61.1446 36.7344C58.9979 39.0836 56.4375 40.3068 53.3131 40.4632C50.0695 40.6227 47.3274 39.5028 44.93 37.0597C42.5452 34.5728 41.4389 31.7293 41.5455 28.3445C41.5987 25.2101 42.705 22.5511 44.93 20.2238C47.0516 18.0027 49.6747 16.8797 52.7302 16.8797C55.9298 16.8797 58.5779 17.9965 60.8343 20.2988C61.7713 21.2342 62.5109 22.2321 63.0687 23.2988C63.7644 20.9683 64.8613 18.8129 66.2872 16.9141C65.9644 16.5419 65.6291 16.1759 65.275 15.8224C61.7306 12.225 57.409 10.4951 52.4105 10.6765C48.1579 10.8298 44.4756 12.2813 41.4326 15.0028V0H35.1587V28.4415V28.6449C35.0365 33.6062 36.829 37.9418 40.4862 41.5299C44.0055 44.9865 48.1359 46.7352 52.7709 46.7352C52.9965 46.7352 53.2253 46.7321 53.4541 46.7227C58.2771 46.5412 62.3918 44.6894 65.6855 41.2202C68.9322 37.8011 70.615 33.7188 70.6965 29.0797L64.3003 27.9692C64.3066 28.1131 64.316 28.2538 64.316 28.3977V28.4009Z" fill="white(#paint1_linear_424_1356)"/>
<path d="M93.4419 20.7783C93.4419 19.0046 93.8399 17.3248 94.5482 15.8232C91.2859 12.5856 87.2745 10.8494 82.6114 10.6742C77.5847 10.4991 73.2318 12.2227 69.6968 15.8139C66.1273 19.3769 64.3191 23.7219 64.3191 28.727C64.3191 33.5132 66.0082 37.7175 69.3364 41.221C72.6332 44.6902 76.7291 46.5421 81.5145 46.7235C81.7339 46.7298 81.9501 46.7329 82.1664 46.7329C86.5161 46.7329 90.3488 45.2564 93.5924 42.3347V46.8862H99.8068V31.1545C96.0305 29.2244 93.4451 25.3017 93.4451 20.7752L93.4419 20.7783ZM90.0323 37.0605C87.6882 39.5068 84.9461 40.6235 81.6524 40.464C78.5217 40.3013 75.9582 39.0813 73.8146 36.7352C71.6648 34.3797 70.6463 31.655 70.6996 28.4017C70.7529 25.1578 71.8748 22.4894 74.1249 20.2402C76.3907 17.9786 79.0607 16.8774 82.2854 16.8774C85.3409 16.8774 87.964 18.0036 90.0856 20.2215C92.3106 22.552 93.4169 25.2078 93.4701 28.3423C93.5234 31.7364 92.3984 34.5861 90.0292 37.0574L90.0323 37.0605Z" fill="white(#paint2_linear_424_1356)"/>
<path d="M108.763 25.6606L104.99 24.4062C101.292 23.1768 101.443 21.1278 101.493 20.4521V20.4021C101.54 18.4939 103.122 16.9642 105.078 16.9173C105.091 16.9173 105.106 16.9173 105.119 16.9173C105.119 16.9173 105.138 16.9173 105.147 16.9173C105.269 16.9173 105.388 16.9267 105.51 16.936C105.576 16.9423 105.642 16.9486 105.708 16.9579C105.783 16.9673 105.855 16.9798 105.93 16.9924C105.99 17.0017 106.053 17.0111 106.112 17.0236C106.72 17.1488 107.291 17.3865 107.754 17.7181C108.472 18.1998 109.045 18.8787 109.409 19.6732C110.409 17.7056 111.725 15.9225 113.289 14.3866C112.878 13.9111 112.408 13.4638 111.882 13.0477C109.785 11.3366 107.479 10.5326 105.034 10.6546C102.264 10.7766 99.8351 11.8308 97.8012 13.7985C95.8112 15.7817 94.8679 18.203 94.9964 20.9871C95.1845 25.5417 97.5975 28.6793 101.982 30.0526L105.805 31.2475C108.619 32.1516 109.91 33.6594 109.863 35.9774C109.813 37.3882 109.422 38.4392 108.666 39.1931C108.021 39.8375 107.218 40.2411 106.194 40.4319C106.194 40.4319 106.165 40.4382 106.15 40.4413C106.109 40.4475 106.065 40.4538 106.021 40.46C105.877 40.4851 105.733 40.507 105.583 40.5195C105.388 40.5383 105.188 40.5508 104.978 40.557C104.505 40.5758 104.038 40.4882 103.577 40.313C102.668 40.0377 101.863 39.5216 101.233 38.8459V46.169C102.226 46.5319 103.282 46.7477 104.389 46.8165C104.63 46.829 104.868 46.8384 105.106 46.8384C108.058 46.8384 110.713 45.7655 113.019 43.6352C115.523 41.2577 116.667 38.4173 116.413 35.2047C116.1 30.4968 113.527 27.2841 108.76 25.6574L108.763 25.6606Z" fill="white(#paint3_linear_424_1356)"/>
<path d="M145 27.9747C145 23.6797 143.352 19.7632 140.089 16.3285C136.745 12.8718 132.718 10.9667 128.112 10.6633C123.038 10.3661 118.532 12.1117 114.721 15.853C110.988 19.5192 109.158 23.9894 109.28 29.1259C109.34 33.9402 111.211 38.1851 114.843 41.7544C118.372 45.161 122.508 46.8846 127.143 46.8846C127.222 46.8846 127.303 46.8846 127.385 46.8846C131.123 46.8252 134.561 45.7084 137.604 43.5656C140.672 41.404 142.872 38.4385 144.144 34.7473L144.596 33.4334H137.946L137.676 33.9996C135.595 38.3666 132.277 40.5156 127.519 40.5688C124.483 40.622 121.882 39.671 119.55 37.669C117.598 35.9923 116.366 33.8557 115.877 31.3062H144.994V27.9747H145ZM138.444 25.3283H115.999C116.689 22.9634 117.927 21.0864 119.757 19.6162C121.951 17.855 124.511 16.9885 127.35 17.0386C130.287 17.0917 132.718 17.9676 134.787 19.7132C136.532 21.1897 137.761 23.0728 138.441 25.3283H138.444Z" fill="white(#paint4_linear_424_1356)"/>
<defs>
<linearGradient id="paint0_linear_424_1356" x1="-0.319652" y1="33.3615" x2="145.584" y2="-0.510701" gradientUnits="userSpaceOnUse">
<stop stop-color="#21365E"/>
<stop offset="0.45" stop-color="#2E6EB6"/>
<stop offset="0.92" stop-color="#48ABDF"/>
</linearGradient>
<linearGradient id="paint1_linear_424_1356" x1="-0.209919" y1="33.8377" x2="145.697" y2="-0.0377303" gradientUnits="userSpaceOnUse">
<stop stop-color="#21365E"/>
<stop offset="0.45" stop-color="#2E6EB6"/>
<stop offset="0.92" stop-color="#48ABDF"/>
</linearGradient>
<linearGradient id="paint2_linear_424_1356" x1="3.26233" y1="48.7975" x2="149.169" y2="14.9253" gradientUnits="userSpaceOnUse">
<stop stop-color="#21365E"/>
<stop offset="0.45" stop-color="#2E6EB6"/>
<stop offset="0.92" stop-color="#48ABDF"/>
</linearGradient>
<linearGradient id="paint3_linear_424_1356" x1="4.0459" y1="52.172" x2="149.953" y2="18.2998" gradientUnits="userSpaceOnUse">
<stop stop-color="#21365E"/>
<stop offset="0.45" stop-color="#2E6EB6"/>
<stop offset="0.92" stop-color="#48ABDF"/>
</linearGradient>
<linearGradient id="paint4_linear_424_1356" x1="5.16145" y1="56.9731" x2="151.068" y2="23.1008" gradientUnits="userSpaceOnUse">
<stop stop-color="#21365E"/>
<stop offset="0.45" stop-color="#2E6EB6"/>
<stop offset="0.92" stop-color="#48ABDF"/>
</linearGradient>
</defs>
</svg>