<svg width="100" height="100" viewBox="0 0 100 100" fill="none" xmlns="http://www.w3.org/2000/svg">
<path fill-rule="evenodd" clip-rule="evenodd" d="M34.8512 64.8438L24.1887 70.8895C23.725 71.152 23.4375 71.6416 23.4375 72.168C23.4375 72.9758 24.0946 73.6328 24.9024 73.6328H89.7462C92.1693 73.6328 94.1407 75.6043 94.1407 78.0273C94.1407 80.4504 92.1693 82.4219 89.7462 82.4219H24.9024C19.2485 82.4219 14.6485 77.8219 14.6485 72.168C14.6485 68.4811 16.644 65.0609 19.8559 63.2426L28.602 58.2836L17.3512 14.2943C16.5233 11.0527 13.6049 8.78906 10.2539 8.78906H4.39454C1.97149 8.78906 0 6.81758 0 4.39453C0 1.97148 1.97149 0 4.39454 0H10.2539C17.6242 0 24.0444 4.9832 25.8666 12.1182L26.6137 15.0391H98.5353C98.9876 15.0391 99.4146 15.2482 99.6921 15.6057C99.9697 15.9631 100.066 16.4285 99.9544 16.867L91.1564 51.2709C89.995 55.8125 85.9101 58.9844 81.2222 58.9844H65.9663C65.2856 62.3234 62.3261 64.8438 58.7891 64.8438H34.8512ZM69.4833 42.3828H78.4851L80.1331 31.6406H70.0325L69.4833 42.3828ZM93.1525 31.6406H83.097L81.4489 42.3828H90.4054L93.1525 31.6406ZM76.3874 56.0547L78.0354 45.3125H69.3335L68.7843 56.0547H76.3874ZM57.5327 42.3828H66.5497L67.0989 31.6406H56.9831L57.5327 42.3828ZM70.7315 17.9688L70.1823 28.7109H80.5825L82.2306 17.9688H70.7315ZM56.8331 28.7109H67.2487L67.7979 17.9688H56.2835L56.8331 28.7109ZM48.1014 28.7109H53.8997L53.3499 17.9688H41.8508L45.5975 42.3828H54.5991L54.0495 31.6406H48.1014C47.2922 31.6406 46.6366 30.985 46.6366 30.1758C46.6366 29.3666 47.2922 28.7109 48.1014 28.7109ZM33.6071 42.3828H42.6336L40.985 31.6406H30.8596L33.6071 42.3828ZM44.7319 56.0547L43.0833 45.3125H34.3565L37.104 56.0547H44.7319ZM46.0471 45.3125L47.6958 56.0547H55.2987L54.7491 45.3125H46.0471ZM57.6827 45.3125L58.2323 56.0547H65.8507L66.3999 45.3125H57.6827ZM81.2222 56.0547C84.5706 56.0547 87.4886 53.7889 88.3181 50.5451L89.656 45.3125H80.9993L79.3513 56.0547H81.2222ZM83.5466 28.7109H93.9017L96.6488 17.9688H85.1946L83.5466 28.7109ZM40.5356 28.7109L38.887 17.9688H27.3631L30.1106 28.7109H40.5356ZM4.39454 5.85938H10.2539C12.5332 5.85938 14.6684 6.60957 16.3955 7.9L18.484 5.81133C16.2078 3.99434 13.333 2.92969 10.2539 2.92969H4.39454C3.58672 2.92969 2.92969 3.58672 2.92969 4.39453C2.92969 5.20234 3.58672 5.85938 4.39454 5.85938ZM89.7462 76.5625H24.9024C22.4793 76.5625 20.5078 74.591 20.5078 72.168C20.5078 70.5879 21.3651 69.1211 22.7446 68.3406L33.7424 62.1049C33.9627 61.9799 34.2116 61.9143 34.4649 61.9143H58.7891C60.6989 61.9143 62.328 60.6897 62.9327 58.9846H35.9666C35.2973 58.9846 34.7133 58.5309 34.5475 57.8826L23.0282 12.8436C22.5539 10.9861 21.6973 9.30801 20.5573 7.88184L18.4682 9.9709C19.2547 11.0221 19.849 12.2357 20.1895 13.5689L31.7176 58.6424C31.8815 59.2828 31.5961 59.9535 31.0211 60.2797L21.3002 65.7914C19.0041 67.0914 17.5781 69.5346 17.5781 72.168C17.5781 76.2066 20.8637 79.4922 24.9024 79.4922H89.7462C90.554 79.4922 91.2111 78.8352 91.2111 78.0273C91.2111 77.2195 90.554 76.5625 89.7462 76.5625ZM33.6914 85.3516C29.6528 85.3516 26.3672 88.6371 26.3672 92.6758C26.3672 96.7145 29.6528 100 33.6914 100C37.7301 100 41.0157 96.7145 41.0157 92.6758C41.0157 88.6371 37.7301 85.3516 33.6914 85.3516ZM33.6914 97.0703C31.2684 97.0703 29.2969 95.0988 29.2969 92.6758C29.2969 90.2527 31.2684 88.2812 33.6914 88.2812C36.1145 88.2812 38.086 90.2527 38.086 92.6758C38.086 95.0988 36.1145 97.0703 33.6914 97.0703ZM33.6914 94.1406C34.5005 94.1406 35.1563 93.4848 35.1563 92.6758C35.1563 91.8668 34.5005 91.2109 33.6914 91.2109C32.8824 91.2109 32.2266 91.8668 32.2266 92.6758C32.2266 93.4848 32.8824 94.1406 33.6914 94.1406ZM85.3517 92.6758C85.3517 93.4848 84.6958 94.1406 83.8868 94.1406C83.0778 94.1406 82.422 93.4848 82.422 92.6758C82.422 91.8668 83.0778 91.2109 83.8868 91.2109C84.6958 91.2109 85.3517 91.8668 85.3517 92.6758ZM83.8868 85.3516C79.8481 85.3516 76.5626 88.6371 76.5626 92.6758C76.5626 96.7145 79.8481 100 83.8868 100C87.9255 100 91.211 96.7145 91.211 92.6758C91.211 88.6371 87.9255 85.3516 83.8868 85.3516ZM83.8868 97.0703C81.4638 97.0703 79.4923 95.0988 79.4923 92.6758C79.4923 90.2527 81.4638 88.2812 83.8868 88.2812C86.3099 88.2812 88.2814 90.2527 88.2814 92.6758C88.2814 95.0988 86.3099 97.0703 83.8868 97.0703Z" fill="url(#paint0_linear_316_2993)"/>
<defs>
<linearGradient id="paint0_linear_316_2993" x1="-3.72529e-07" y1="50" x2="100" y2="50" gradientUnits="userSpaceOnUse">
<stop stop-color="#223962"/>
<stop offset="0.526042" stop-color="#3277BC"/>
<stop offset="0.973958" stop-color="#48ABDF"/>
</linearGradient>
</defs>
</svg>
