<svg width="94" height="100" viewBox="0 0 94 100" fill="none" xmlns="http://www.w3.org/2000/svg">
<path d="M86.4095 100H30.6659C29.8569 100 29.2011 99.3441 29.2011 98.5352C29.2011 97.7262 29.8569 97.0703 30.6659 97.0703H40.9547L37.6548 88.2813H18.1945L14.8945 97.0703H24.8066C25.6155 97.0703 26.2714 97.7262 26.2714 98.5352C26.2714 99.3441 25.6155 100 24.8066 100H1.46484C0.655857 100 0 99.3441 0 98.5352C0 97.7262 0.655857 97.0703 1.46484 97.0703H11.765L19.965 75.2317C19.7417 75.0387 19.5243 74.8368 19.3126 74.6249C17.0122 72.3245 15.7455 69.2659 15.7455 66.0128C15.7455 62.7597 17.0122 59.7011 19.3126 57.4007L23.3177 53.3957C15.8322 42.5016 11.8054 29.6168 11.8054 16.1136C11.8054 13.6903 13.7767 11.719 16.1999 11.719C17.3738 11.719 18.4775 12.1763 19.3074 13.0063L71.5427 65.2417V33.0518C68.574 34.3446 65.0101 33.7621 62.5926 31.3446C59.4355 28.1873 59.4355 23.0504 62.5924 19.8934C62.8672 19.6186 63.2396 19.4643 63.6283 19.4643C64.017 19.4643 64.3892 19.6186 64.6642 19.8934L74.0435 29.2729C74.3181 29.5475 74.4724 29.9202 74.4724 30.3086V43.8902C76.3974 44.9406 78.397 45.8969 80.4218 46.7355C81.1693 47.0451 81.5243 47.9021 81.2146 48.6494C80.9048 49.397 80.0478 49.7517 79.3007 49.4422C77.6679 48.7658 76.0505 48.0164 74.4724 47.2051V68.171L80.931 74.6296C81.7609 75.4595 82.2181 76.563 82.2181 77.737C82.2181 80.1602 80.2466 82.1315 77.8236 82.1315C75.0081 82.1315 72.1742 81.9524 69.4006 81.5991C68.598 81.4969 68.0302 80.7633 68.1326 79.9608C68.2349 79.1583 68.9701 78.5909 69.7707 78.6928C70.8007 78.8241 71.8396 78.9301 72.8828 79.0108L34.0622 40.1906C33.4901 39.6186 33.4901 38.691 34.0622 38.1191C34.6343 37.5471 35.5618 37.5471 36.1337 38.1191L77.2138 79.1993C77.4171 79.2012 77.6204 79.2022 77.8236 79.2022C78.6314 79.2022 79.2884 78.5452 79.2884 77.7374C79.2884 77.3462 79.1361 76.9782 78.8595 76.7016L17.2357 15.0778C16.9589 14.8011 16.5912 14.6487 16.1999 14.6487C15.3921 14.6487 14.7351 15.3057 14.7351 16.1136C14.7351 16.3337 14.7384 16.7218 14.7384 16.7218L31.8368 33.8221C32.4089 34.3942 32.4089 35.3217 31.8368 35.8936C31.2647 36.4656 30.3372 36.4656 29.7653 35.8936L14.9244 21.0526C16.0775 36.043 22.4691 49.9797 33.2134 60.7238C41.7079 69.2183 52.3586 75.0839 64.0142 77.6862C64.8037 77.8626 65.3009 78.6456 65.1246 79.435C64.9484 80.2245 64.166 80.7219 63.3758 80.5456C55.1678 78.7128 47.4366 75.3346 40.5487 70.6128L36.5368 74.6247C36.3249 74.8366 36.1075 75.0386 35.8844 75.2315L44.0844 97.0701H86.4097C87.2188 97.0701 87.8745 97.726 87.8745 98.535C87.8745 99.3439 87.2185 100 86.4095 100ZM19.2945 85.3516H36.5546L33.3819 76.902C29.9589 78.6141 25.8903 78.6143 22.4671 76.902L19.2945 85.3516ZM23.5046 74.1389C26.2509 75.6309 29.5985 75.6309 32.3446 74.1389L31.4015 71.627C30.7347 69.8515 29.1683 69.2187 27.9247 69.2187C26.681 69.2187 25.1146 69.8515 24.448 71.627L23.5046 74.1389ZM27.9245 66.2892C30.72 66.2892 33.1612 67.9804 34.144 70.5976L34.7655 72.2528L38.1382 68.88C35.68 67.0273 33.3415 64.9954 31.1417 62.7956C28.9339 60.5878 26.9023 58.2521 25.0528 55.8037L21.3841 59.4724C19.637 61.2193 18.6749 63.5421 18.6749 66.0128C18.6749 68.3398 19.5285 70.5356 21.0872 72.2427L21.705 70.5976C22.6878 67.9802 25.129 66.2892 27.9245 66.2892ZM63.7777 23.1504C62.7137 25.11 63.009 27.618 64.664 29.2731C66.3205 30.9299 68.8209 31.2367 70.788 30.161L63.7777 23.1504ZM67.3451 42.6164C67.0506 42.6164 66.7535 42.5279 66.4953 42.3437C56.7203 35.367 49.1125 25.786 44.4944 14.6364C44.1846 13.889 44.5395 13.0321 45.2872 12.7226C46.0348 12.413 46.8914 12.7681 47.201 13.5153C51.6092 24.1573 58.8697 33.3014 68.1976 39.9592C68.856 40.4291 69.0088 41.3439 68.5388 42.0023C68.2529 42.4029 67.8025 42.6164 67.3451 42.6164ZM86.4704 30.8409C86.2835 30.8409 86.0937 30.8049 85.9105 30.7289C75.5585 26.4413 67.4959 18.3788 63.208 8.02687C62.8982 7.27941 63.2531 6.42257 64.0008 6.11301C64.7482 5.80324 65.6051 6.15832 65.9146 6.90578C69.9033 16.5348 77.4027 24.034 87.0317 28.0223C87.7792 28.3319 88.1343 29.1887 87.8245 29.9362C87.5907 30.5004 87.0452 30.8409 86.4704 30.8409ZM92.4716 13.8501C92.2847 13.8501 92.0948 13.8142 91.9116 13.7382C86.5708 11.5261 82.4112 7.36652 80.1991 2.02571C79.8894 1.27826 80.2443 0.421423 80.9919 0.111854C81.7396 -0.197715 82.5962 0.157362 82.9058 0.904625C84.8187 5.52238 88.4151 9.11885 93.0329 11.0315C93.7803 11.3411 94.1354 12.1981 93.8257 12.9454C93.5917 13.5095 93.0462 13.8501 92.4716 13.8501Z" fill="url(#paint0_linear_316_3003)"/>
<defs>
<linearGradient id="paint0_linear_316_3003" x1="-3.49945e-07" y1="50" x2="93.9376" y2="50" gradientUnits="userSpaceOnUse">
<stop stop-color="#223962"/>
<stop offset="0.526042" stop-color="#3277BC"/>
<stop offset="0.973958" stop-color="#48ABDF"/>
</linearGradient>
</defs>
</svg>
