<svg width="50" height="50" viewBox="0 0 50 50" fill="none" xmlns="http://www.w3.org/2000/svg">
<circle cx="25" cy="25" r="24" stroke="white" stroke-width="2"/>
<path d="M37.7021 24.578C37.7018 24.5777 37.7016 24.5773 37.7012 24.577L32.3944 19.2957C31.9968 18.9001 31.3538 18.9016 30.958 19.2992C30.5623 19.6968 30.5638 20.3398 30.9614 20.7355L34.5244 24.2812H13.0156C12.4547 24.2812 12 24.7359 12 25.2969C12 25.8578 12.4547 26.3125 13.0156 26.3125H34.5244L30.9615 29.8582C30.5639 30.2539 30.5624 30.897 30.9581 31.2945C31.3538 31.6922 31.9969 31.6936 32.3944 31.298L37.7013 26.0167C37.7016 26.0164 37.7018 26.0161 37.7022 26.0158C38.0999 25.6188 38.0987 24.9736 37.7021 24.578Z" fill="white"/>
</svg>
