<svg width="100" height="93" viewBox="0 0 100 93" fill="none" xmlns="http://www.w3.org/2000/svg">
<path fill-rule="evenodd" clip-rule="evenodd" d="M98.3197 12.8896H63.2207C61.2959 12.8572 61.2953 9.99316 63.2205 9.96074H64.9944C65.8205 5.39629 71.577 2.87558 75.519 5.47519C77.566 2.09648 81.2164 0 85.276 0C85.4176 0.00913307 85.5736 0.0164665 85.7396 0.0242667C87.2846 0.096869 89.6903 0.209916 89.2947 2.19102C89.0838 2.97168 88.2797 3.43379 87.4988 3.22266C86.7785 3.02793 86.0307 2.9291 85.2762 2.9291C81.7586 2.9291 78.6543 5.0459 77.3676 8.32187C77.008 9.32461 75.5785 9.57187 74.9016 8.75019C74.1274 7.86426 73.0104 7.35605 71.8373 7.35605C70.1096 7.35605 68.6299 8.43847 68.0406 9.96074H93.6469C93.4375 8.75332 92.9692 7.60703 92.2623 6.58847C91.1914 4.98808 93.5449 3.35625 94.6688 4.91875C95.7182 6.43125 96.3754 8.15215 96.6065 9.96074H98.3197C99.1285 9.96074 99.7842 10.6162 99.7842 11.4252C99.7842 12.234 99.1285 12.8896 98.3197 12.8896ZM7.47795 21.7592H42.577C43.3858 21.7592 44.0414 21.1035 44.0414 20.2947C44.0414 19.4857 43.3858 18.8303 42.577 18.8303H40.8031C39.9772 14.2654 34.2199 11.7457 30.2787 14.3449C24.8014 5.16854 10.4748 8.27206 9.19338 18.8301H7.47776C5.55276 18.8627 5.55315 21.7267 7.47795 21.7592ZM20.5215 11.7986C24.0391 11.7986 27.1434 13.9154 28.4301 17.1914C28.617 17.6674 29.0389 18.0113 29.5428 18.0988C30.0467 18.1863 30.5596 18.0047 30.8961 17.6195C32.8422 15.2988 36.7535 16.0457 37.757 18.8299H12.1518C12.8477 14.8408 16.336 11.7986 20.5215 11.7986ZM95.1127 37.8259C96.8892 38.5784 98.7629 39.3721 99.5957 41.2262C100.124 42.4031 100.135 43.6826 99.6256 44.8297C94.6509 54.6534 94.4804 54.674 81.5397 56.2402L81.5396 56.2402L81.5391 56.2403L81.539 56.2403L81.5387 56.2403L81.5386 56.2403L81.5382 56.2404C77.3654 56.7454 71.8649 57.4111 64.4477 58.618L47.1074 75.0807C46.8352 75.3391 46.4742 75.483 46.099 75.483H36.4205C35.8405 75.483 35.3149 75.1404 35.0807 74.6097C34.8465 74.0791 34.9475 73.4601 35.3385 73.0316L46.1498 61.1775L27.0832 63.8447L24.3791 66.1553C22.8942 67.3809 21.0344 65.2035 22.4764 63.9283L27.4313 59.6947L22.195 60.2803L11.3901 70.3551H14.9549L17.3522 68.3068C17.9672 67.7812 18.8916 67.8537 19.417 68.4689C19.9426 69.084 19.8699 70.0084 19.2549 70.5338L16.4467 72.933C16.1815 73.1594 15.8442 73.284 15.4953 73.284H7.6721C6.3807 73.3273 5.70238 71.5963 6.67328 70.7484L16.411 61.6687L8.36566 59.7209C7.24984 59.4123 6.42386 58.473 6.24437 57.3314C5.97596 55.0857 7.48393 54.3621 9.07632 53.5981L9.07636 53.5981C9.42365 53.4314 9.77496 53.2629 10.1127 53.0762L0.150817 32.8521C-0.107582 32.3277 -0.0292614 31.7 0.34984 31.2551C0.728941 30.81 1.33617 30.6336 1.89515 30.8051L10.5096 33.4551C10.7362 33.5248 10.9424 33.6486 11.1108 33.8156L23.7668 46.3814L49.6219 40.7426L38.9237 28.9377C38.5346 28.5086 38.4352 27.8904 38.6699 27.3609C38.9047 26.8312 39.4295 26.4898 40.0088 26.4898H49.4365C49.7854 26.4898 50.1227 26.6143 50.3879 26.8408L63.1936 37.7828C67.7493 36.9116 71.1495 36.0835 73.8794 35.4185L73.8794 35.4185C82.2577 33.3779 84.3222 32.875 94.1006 37.3863C94.4288 37.5362 94.769 37.6803 95.1127 37.8259ZM48.8961 29.4188H43.3125L52.9227 40.0227L59.6016 38.566L48.8961 29.4188ZM9.30335 36.1484L4.27816 34.6027L12.7211 51.7432L20.8346 47.5975L9.30335 36.1484ZM39.7385 72.5535H45.5147L65.5723 53.5109L55.0569 55.758L39.7385 72.5535ZM88.6643 52.2723C93.0773 51.6551 94.8096 48.4535 96.9486 43.6393C97.324 42.7945 96.8438 41.9353 96.0879 41.5254C95.9624 41.5377 92.9903 42.0886 89.3286 42.7674L89.3281 42.7675L89.3269 42.7677C83.3264 43.8801 75.4749 45.3355 75.2629 45.3266C73.5104 45.3184 73.2672 42.7518 74.9998 42.4213L91.3637 39.4148C91.0516 39.2843 90.7416 39.1529 90.4335 39.0223L90.4332 39.0222L90.4329 39.0221L90.4326 39.022C87.0301 37.5801 83.8477 36.2315 80.4049 37.027C74.5857 38.2953 65.0412 40.3774 55.0458 42.5578L54.9707 42.5742L54.9686 42.5746C43.5198 45.0721 31.4906 47.6962 23.7981 49.3727L9.13636 56.8643C9.13695 56.8756 9.14027 56.8892 9.14495 56.8959L18.9768 59.2764L20.5522 57.8074C20.7823 57.593 21.0754 57.4582 21.3881 57.4232L31.8471 56.2535C33.2506 56.067 34.0528 57.9254 32.9613 58.8223L31.2227 60.3078L49.2422 57.7871L53.2096 53.4371C53.4154 53.2113 53.6867 53.0555 53.9856 52.9918L70.0469 49.5598C71.4615 49.2297 72.4283 51.0762 71.3613 52.0539L68.1014 55.1488L81.8084 53.2314L88.6643 52.2723ZM92.5282 89.4144H95.2365C97.1834 89.4662 97.1494 92.3015 95.2364 92.3435H48.5629C46.6209 92.2927 46.6442 89.4586 48.5629 89.4144H51.3219C52.2088 83.2093 59.9518 79.882 65.0774 83.6507C71.9715 71.2119 91.1899 75.2941 92.5282 89.4144ZM64.4598 87.0041C61.4328 83.4144 55.3707 84.9281 54.3114 89.4144V89.4146H89.5819C88.1053 77.4744 71.3455 75.2539 66.9256 86.5757C66.7387 87.0517 66.317 87.3957 65.8131 87.4832C65.3092 87.5705 64.7963 87.3888 64.4598 87.0041ZM69.1635 43.5078L68.0117 43.7224C67.2166 43.8707 66.6922 44.6355 66.8404 45.4304C66.9719 46.1351 67.5869 46.6269 68.2785 46.6269C68.3973 46.6406 68.8873 46.5434 69.266 46.4682L69.2664 46.4681C69.4647 46.4287 69.6325 46.3954 69.7004 46.3873C71.5863 46.0027 71.0621 43.1865 69.1635 43.5078ZM34.5524 49.9619L36.9424 49.5162C38.8412 49.1939 39.3649 52.0111 37.4793 52.3957L35.0893 52.8414C34.3133 52.9918 33.5258 52.4701 33.3811 51.6701C33.2328 50.875 33.7573 50.1103 34.5524 49.9619ZM53.6719 46.3965L51.2819 46.8422C50.4867 46.9906 49.9623 47.7553 50.1106 48.5504C50.2553 49.3504 51.0428 49.8721 51.8188 49.7217L54.2088 49.276C56.0946 48.8914 55.5709 46.0752 53.6719 46.3965ZM59.6467 45.2824L62.0367 44.8367C63.9355 44.5146 64.4594 47.3318 62.5736 47.7162L60.1836 48.1619C59.4076 48.3123 58.6201 47.7906 58.4754 46.9906C58.3271 46.1955 58.8516 45.4308 59.6467 45.2824ZM45.307 47.9562L42.9172 48.4019C42.1221 48.5504 41.5977 49.315 41.7459 50.1101C41.8906 50.9101 42.6781 51.4318 43.4541 51.2814L45.8439 50.8357C47.7295 50.4512 47.2062 47.6346 45.307 47.9562ZM27.4256 51.2906L28.5774 51.0758C30.4756 50.7558 31.0008 53.5697 29.1147 53.9553C29.0469 53.9634 28.8801 53.9966 28.6827 54.0358L28.6825 54.0359L28.6824 54.0359L28.6822 54.0359C28.3032 54.1113 27.8117 54.209 27.6926 54.1951C27.001 54.1951 26.386 53.7033 26.2545 52.999C26.1063 52.2039 26.6305 51.4391 27.4256 51.2906Z" fill="url(#paint0_linear_316_2998)"/>
<defs>
<linearGradient id="paint0_linear_316_2998" x1="-3.72529e-07" y1="46.1718" x2="100" y2="46.1718" gradientUnits="userSpaceOnUse">
<stop stop-color="#223962"/>
<stop offset="0.526042" stop-color="#3277BC"/>
<stop offset="0.973958" stop-color="#48ABDF"/>
</linearGradient>
</defs>
</svg>
