<svg width="73" height="14" viewBox="0 0 73 14" fill="none" xmlns="http://www.w3.org/2000/svg">
<path d="M19.5067 4.62C19.74 4.43333 19.9733 4.24667 20.2067 4.15333C20.4867 4.06 20.7667 4.01333 21.0467 4.01333C21.3267 4.01333 21.56 4.06 21.7933 4.15333C21.98 4.24667 22.1667 4.34 22.3067 4.43333C22.4467 4.57333 22.54 4.66667 22.6333 4.80667C22.7267 4.94667 22.7733 5.04 22.8667 5.13333H24.9667C24.78 4.52667 24.5 4.06 24.1733 3.68667C23.8 3.31333 23.4267 3.03333 23.0533 2.8C22.68 2.61333 22.3067 2.47333 21.9333 2.38C21.56 2.28667 21.28 2.28667 21.0467 2.28667C20.5333 2.28667 20.02 2.38 19.5067 2.61333C18.9933 2.8 18.5733 3.08 18.2 3.45333C17.8267 3.82667 17.5 4.24667 17.3133 4.76C17.08 5.27333 16.9867 5.78667 16.9867 6.39333C16.9867 7.04667 17.1267 7.60667 17.36 8.12C17.5933 8.63333 17.92 9.05333 18.2933 9.42667C18.6667 9.8 19.1333 10.08 19.6 10.2667C20.1133 10.4533 20.58 10.5467 21.0933 10.5467C22.0267 10.5467 22.82 10.3133 23.4733 9.8C24.1733 9.33333 24.64 8.63333 24.9667 7.74667H22.8667C22.6333 8.12 22.3533 8.4 22.0733 8.58667C21.7933 8.72667 21.4667 8.82 21.1867 8.82C20.8133 8.82 20.5333 8.77333 20.2533 8.63333C19.9733 8.49333 19.74 8.35333 19.5067 8.12C19.32 7.88667 19.1333 7.65333 19.04 7.37333C18.9467 7.09333 18.8533 6.76667 18.8533 6.44C18.8533 6.06667 18.9 5.69333 19.04 5.41333C19.0867 5.04 19.2733 4.80667 19.5067 4.62ZM28.98 2.38C28.7933 2.42667 28.6533 2.52 28.5133 2.56667C28.3733 2.66 28.28 2.75333 28.1867 2.84667C28.0933 2.94 28 3.08 27.9067 3.22H27.86V2.56667H26.18V10.2667H28.0467V5.92667C28.0467 5.83333 28.0467 5.64667 28.0933 5.46C28.0933 5.27333 28.1867 5.04 28.28 4.85333C28.3733 4.66667 28.56 4.48 28.7933 4.34C29.0267 4.2 29.3533 4.10667 29.7733 4.10667V2.28667H29.6333C29.3533 2.28667 29.1667 2.33333 28.98 2.38ZM37.1467 3.59333C36.82 3.22 36.4 2.89333 35.8867 2.66C35.3733 2.42667 34.8133 2.28667 34.2067 2.28667C33.6 2.28667 33.04 2.38 32.5267 2.61333C32.0133 2.84667 31.5933 3.12667 31.2667 3.5C30.8933 3.87333 30.66 4.34 30.4267 4.80667C30.24 5.32 30.1467 5.83333 30.1467 6.39333C30.1467 6.95333 30.24 7.46667 30.4733 7.98C30.66 8.49333 30.94 8.91333 31.3133 9.28667C31.6867 9.66 32.1067 9.94 32.62 10.1733C33.1333 10.36 33.6467 10.5 34.2533 10.5C34.72 10.5 35.14 10.4067 35.56 10.2667C35.98 10.1267 36.3067 9.94 36.6333 9.66C36.96 9.42667 37.24 9.14667 37.4733 8.82C37.7067 8.49333 37.8933 8.16667 37.9867 7.79333H36.0267C35.6533 8.44667 35.0467 8.77333 34.2533 8.77333C33.9267 8.77333 33.6467 8.72667 33.3667 8.58667C33.0867 8.44667 32.9 8.30667 32.7133 8.16667C32.5267 7.98 32.3867 7.84 32.2933 7.65333C32.2 7.46667 32.1533 7.32667 32.1067 7.18667H38.1267C38.1733 7.04667 38.1733 6.90667 38.22 6.76667C38.2667 6.62667 38.2667 6.44 38.2667 6.25333C38.2667 5.78667 38.1733 5.27333 37.9867 4.80667C37.7533 4.38667 37.4733 3.96667 37.1467 3.59333ZM32.0133 5.74C32.1067 5.36667 32.2467 5.08667 32.3867 4.85333C32.5733 4.62 32.76 4.43333 32.9467 4.34C33.18 4.2 33.3667 4.10667 33.6 4.06C33.8333 4.01333 34.02 3.96667 34.2067 3.96667C34.44 3.96667 34.72 4.01333 34.9067 4.06C35.14 4.10667 35.3267 4.24667 35.5133 4.38667C35.7 4.52667 35.84 4.71333 35.98 4.94667C36.12 5.18 36.2133 5.41333 36.26 5.74H32.0133ZM45.4533 3.54667C45.4067 3.5 45.3133 3.45333 45.22 3.31333C45.08 3.17333 44.94 3.03333 44.7067 2.89333C44.4733 2.75333 44.24 2.61333 43.9133 2.52C43.5867 2.38 43.26 2.33333 42.84 2.33333C42.28 2.33333 41.8133 2.42667 41.3467 2.66C40.88 2.84667 40.46 3.12667 40.1333 3.5C39.76 3.87333 39.5267 4.29333 39.2933 4.76C39.1067 5.27333 38.9667 5.78667 38.9667 6.39333C38.9667 7.04667 39.06 7.60667 39.2933 8.12C39.48 8.63333 39.76 9.05333 40.1333 9.42667C40.46 9.8 40.88 10.08 41.3467 10.2667C41.8133 10.4533 42.28 10.5467 42.7933 10.5467C43.0267 10.5467 43.3067 10.5 43.54 10.4533C43.82 10.4067 44.0533 10.3133 44.2867 10.22C44.52 10.1267 44.7533 9.98667 44.94 9.84667C45.1733 9.70667 45.3133 9.52 45.5 9.38V10.3133H47.18V2.56667H45.5L45.4533 3.54667ZM45.22 7.37333C45.08 7.65333 44.94 7.93333 44.7533 8.12C44.5667 8.35333 44.3333 8.49333 44.0533 8.63333C43.7733 8.77333 43.4933 8.82 43.1667 8.82C42.84 8.82 42.5133 8.77333 42.2333 8.63333C41.9533 8.49333 41.72 8.35333 41.4867 8.12C41.3 7.88667 41.1133 7.65333 41.02 7.37333C40.88 7.09333 40.8333 6.76667 40.8333 6.44C40.8333 6.16 40.88 5.88 40.9733 5.55333C41.0667 5.27333 41.2067 4.99333 41.3933 4.76C41.58 4.52667 41.8133 4.34 42.0933 4.2C42.3733 4.06 42.7 3.96667 43.0733 3.96667C43.3533 3.96667 43.6333 4.01333 43.9133 4.10667C44.1933 4.2 44.4267 4.34 44.66 4.57333C44.8933 4.76 45.0333 5.04 45.1733 5.32C45.3133 5.6 45.36 5.97333 45.36 6.34667C45.4067 6.76667 45.36 7.09333 45.22 7.37333ZM51.2867 0H49.42V2.56667H48.02V4.2H49.42V10.2667H51.2867V4.2H52.6867V2.56667H51.2867V0ZM53.4333 1.68H55.3V0H53.4333V1.68ZM53.4333 10.2667H55.3V2.56667H53.4333V10.2667ZM72.1 4.85333C71.9133 4.38667 71.68 3.96667 71.3067 3.54667C70.98 3.17333 70.56 2.84667 70.0467 2.61333C69.5333 2.38 68.9733 2.24 68.3667 2.24C67.76 2.24 67.2 2.33333 66.6867 2.56667C66.1733 2.8 65.7533 3.08 65.38 3.45333C65.0067 3.82667 64.7733 4.29333 64.54 4.76C64.3533 5.27333 64.26 5.78667 64.26 6.34667C64.26 6.90667 64.3533 7.42 64.5867 7.93333C64.82 8.44667 65.0533 8.86667 65.4267 9.24C65.8 9.61333 66.22 9.89333 66.7333 10.1267C67.2467 10.3133 67.76 10.4533 68.3667 10.4533C68.8333 10.4533 69.2533 10.36 69.6733 10.22C70.0933 10.08 70.42 9.89333 70.7467 9.61333C71.0733 9.38 71.3533 9.1 71.5867 8.77333C71.82 8.44667 72.0067 8.12 72.1 7.74667H70.14C69.7667 8.4 69.16 8.72667 68.3667 8.72667C68.04 8.72667 67.76 8.68 67.48 8.54C67.2 8.4 67.0133 8.26 66.8267 8.12C66.64 7.93333 66.5 7.79333 66.4067 7.60667C66.3133 7.42 66.2667 7.28 66.22 7.14H72.24C72.2867 7 72.2867 6.86 72.3333 6.72C72.3333 6.58 72.38 6.39333 72.38 6.20667C72.3333 5.83333 72.2867 5.32 72.1 4.85333ZM66.1733 5.74C66.2667 5.36667 66.4067 5.08667 66.5467 4.85333C66.7333 4.62 66.92 4.43333 67.1067 4.34C67.2933 4.2 67.5267 4.10667 67.76 4.06C67.9933 4.01333 68.18 3.96667 68.3667 3.96667C68.6 3.96667 68.88 4.01333 69.0667 4.06C69.3 4.10667 69.4867 4.24667 69.6733 4.38667C69.86 4.52667 70 4.71333 70.14 4.94667C70.28 5.18 70.3733 5.41333 70.42 5.74H66.1733ZM60.0133 7.65333L58.1 2.56667H56.0933L59.22 10.2667H60.6667L63.7933 2.56667H61.74L60.0133 7.65333ZM6.44 2.52L6.39333 3.5C6.34667 3.40667 6.25333 3.31333 6.16 3.17333C6.06667 3.03333 5.88 2.89333 5.69333 2.75333C5.50667 2.61333 5.27333 2.52 4.94667 2.42667C4.66667 2.33333 4.34 2.28667 3.92 2.28667C3.40667 2.28667 2.94 2.38 2.47333 2.56667C2.00667 2.75333 1.58667 3.03333 1.21333 3.40667C0.84 3.78 0.56 4.2 0.326667 4.66667C0.0933333 5.18 0 5.74 0 6.34667C0 7 0.14 7.56 0.373333 8.07333C0.606667 8.58667 0.933333 9.00667 1.30667 9.38C1.68 9.75333 2.1 10.0333 2.56667 10.22C3.03333 10.4067 3.5 10.5 3.96667 10.5C4.34 10.5 4.71333 10.4533 4.99333 10.36C5.27333 10.2667 5.55333 10.1267 5.74 10.0333C5.92667 9.89333 6.11333 9.75333 6.20667 9.61333C6.3 9.52 6.34667 9.42667 6.39333 9.38V10.7333C6.39333 10.8733 6.3 11.0133 6.20667 11.2C6.11333 11.3867 5.97333 11.5733 5.78667 11.7133C5.6 11.9 5.41333 12.04 5.13333 12.1333C4.9 12.2267 4.57333 12.32 4.24667 12.32C3.40667 12.32 2.84667 11.9933 2.47333 11.34H0.56C0.653333 11.7133 0.84 12.04 1.07333 12.3667C1.30667 12.6933 1.58667 12.9733 1.91333 13.2067C2.24 13.44 2.61333 13.6733 2.98667 13.8133C3.36 13.9067 3.82667 14 4.24667 14C4.80667 14 5.36667 13.9067 5.88 13.6733C6.39333 13.44 6.81333 13.16 7.18667 12.7867C7.56 12.4133 7.84 11.9933 8.02667 11.48C8.21333 10.9667 8.35333 9.89333 8.35333 9.89333V2.47333L6.44 2.52ZM6.16 7.37333C6.02 7.7 5.88 7.93333 5.64667 8.16667C5.46 8.35333 5.18 8.54 4.94667 8.68C4.66667 8.77333 4.43333 8.86667 4.15333 8.86667C3.87333 8.86667 3.59333 8.82 3.31333 8.68C3.03333 8.58667 2.8 8.4 2.56667 8.21333C2.33333 8.02667 2.19333 7.74667 2.05333 7.42C1.91333 7.09333 1.86667 6.72 1.86667 6.34667C1.86667 5.97333 1.91333 5.64667 2.05333 5.36667C2.19333 5.08667 2.33333 4.80667 2.56667 4.62C2.8 4.43333 3.03333 4.24667 3.26667 4.15333C3.54667 4.06 3.82667 3.96667 4.10667 3.96667C4.43333 3.96667 4.76 4.06 5.04 4.2C5.32 4.34 5.55333 4.52667 5.74 4.76C5.92667 4.99333 6.11333 5.22667 6.20667 5.50667C6.3 5.78667 6.34667 6.06667 6.34667 6.34667C6.34667 6.72 6.3 7.04667 6.16 7.37333ZM12.2733 2.33333C12.0867 2.38 11.9467 2.47333 11.8067 2.52C11.6667 2.61333 11.5733 2.70667 11.48 2.8C11.3867 2.89333 11.2933 3.03333 11.2 3.12667V2.52H9.52V10.08H11.3867V5.83333C11.3867 5.74 11.3867 5.55333 11.4333 5.36667C11.4333 5.18 11.5267 4.94667 11.62 4.76C11.7133 4.57333 11.9 4.38667 12.1333 4.24667C12.3667 4.10667 12.6933 4.01333 13.1133 4.01333V2.28667H12.9733C12.6467 2.28667 12.46 2.28667 12.2733 2.33333ZM13.9067 10.08H15.7733V2.52H13.9067V10.08ZM13.9067 1.58667H15.7733V0H13.9067V1.58667Z" fill="#9B9FA0"/>
</svg>
